<?xml version="1.0" encoding="UTF-8"?>
<!DOCTYPE svg PUBLIC "-//W3C//DTD SVG 1.1//EN" "http://www.w3.org/Graphics/SVG/1.1/DTD/svg11.dtd">
<!-- Creator: CorelDRAW -->
<svg xmlns="http://www.w3.org/2000/svg" xml:space="preserve" width="2048px" height="2048px" style="shape-rendering:geometricPrecision; text-rendering:geometricPrecision; image-rendering:optimizeQuality; fill-rule:evenodd; clip-rule:evenodd"
viewBox="0 0 2048 2048"
 xmlns:xlink="http://www.w3.org/1999/xlink">
 <defs>
  <style type="text/css">
   <![CDATA[
    .fil1 {fill:none}
    .fil0 {fill:#009688}
    .fil2 {fill:#FFFFFE;fill-rule:nonzero}
   ]]>
  </style>
 </defs>
 <g id="Layer_x0020_1">
  <metadata id="CorelCorpID_0Corel-Layer"/>
  <rect class="fil0" width="2048" height="2048"/>
  <rect class="fil1" x="255.999" y="255.999" width="1536" height="1536"/>
  <path class="fil2" d="M1474.85 365.305l-114.88 94.6135 -0.0106299 -0.011811c-2.05158,1.72205 -4.10906,3.79016 -6.13701,6.18544 -2.01142,2.3752 -3.67796,4.68426 -4.94646,6.88465l-156.049 270.466 -7.82127 13.5555 -15.3036 2.19449 -757.712 108.678 0.00236221 0.0177165c-2.22874,0.327166 -4.20591,1.06536 -5.7815,2.13189 -1.54488,1.04646 -2.87008,2.4626 -3.84095,4.17284l-0.125197 0.125197 -29.9126 51.8115c-0.876379,1.5189 -1.42559,3.09921 -1.67599,4.67126 -0.421654,2.64331 0.0484252,5.40237 1.2378,7.90394 1.14803,2.41536 2.91969,4.44331 5.14016,5.72481 1.32047,0.761812 2.88307,1.31811 4.65709,1.60158l589.4 94.9076 45.7937 7.37363 -23.1685 40.1268 -110.601 191.556 -19.3748 14.8748 -263.866 70.7032c-1.72441,0.461811 -3.30355,1.24488 -4.65591,2.27953 -1.3878,1.06181 -2.55591,2.32677 -3.43347,3.73229l0.0732284 0.0425197 -16.1032 28.0725 -0.125197 0c-0.876379,1.5189 -1.42205,3.18425 -1.66772,4.9063 -0.368504,2.58425 0.113386,5.24646 1.27559,7.63583 1.17638,2.4189 2.97992,4.45394 5.23111,5.75315l-0.0307087 0.0531496c1.28268,0.721654 2.87599,1.25079 4.76575,1.52008l248.172 35.7402 20.6256 11.8748 155.046 197.059c1.11614,1.42323 2.40827,2.52756 3.79016,3.32008 2.31614,1.32756 4.98898,1.88504 7.63111,1.69606 2.59134,-0.185433 5.10119,-1.09606 7.14804,-2.70355 1.23662,-0.969686 2.34331,-2.23937 3.23977,-3.80315l0.125197 -0.125197 16.2343 -28.1162 0.0531496 0.0307087c0.840946,-1.48819 1.38071,-3.13701 1.60276,-4.84843 0.209055,-1.61339 0.0649607,-3.40985 -0.438189,-5.28662l-70.702 -263.866 3.2504 -24.1252 110.597 -191.562 23.1697 -40.1327 29.2051 35.8831 376.923 463.113c1.16102,1.42913 2.39292,2.49567 3.63544,3.2126l0.125197 0c2.23937,1.29331 4.92756,1.81417 7.65591,1.59685 2.70473,-0.216142 5.26772,-1.16102 7.28386,-2.79921 1.17874,-0.956694 2.26299,-2.23465 3.18544,-3.8315l0.0543308 0.0318898 29.8571 -51.7182c0.976772,-1.6937 1.54252,-3.65906 1.69134,-5.73662 0.151181,-2.11536 -0.121654,-4.15866 -0.819686,-5.9693l-0.0425197 0.0165354 -284.909 -710.62 -5.77678 -14.4047 7.77757 -13.4705 156.178 -270.508 0.0543308 0.0307087c1.44095,-2.50866 2.64803,-5.11418 3.61181,-7.80237 0.904725,-2.5252 1.60866,-5.28071 2.10118,-8.24883l0 -0.125197 24.4984 -146.797 0 -0.125197c0.100394,-0.578741 0.151181,-0.826772 0.15,-0.832678 -0.0248032,-0.0992127 -0.0874016,0.0354331 -0.297638,-0.151181 -0.328347,-0.292914 -0.669686,-0.48189 -0.969686,-0.533859 -0.18189,-0.0318898 -0.250394,-0.0720473 -0.291733,-0.0956694l-0.0129921 0c-0.0318898,0.00826772 -0.0200788,0.0236221 -0.166536,0.0992127 -0.264567,0.137008 -0.47126,0.263386 -0.602363,0.370866zm-155.38 45.3638l114.88 -94.6135c3.87756,-3.19016 7.84725,-5.80276 11.8512,-7.87087 4.25906,-2.19921 8.72009,-3.87756 13.3016,-5.0693l-0.00826772 -0.0307087 0.0625985 -0.0165354 0.249213 0c9.18308,-2.35276 18.3106,-2.62795 26.8677,-1.1374 12.2173,2.12953 23.6185,7.67835 32.7201,15.7843 9.21969,8.21103 16.2319,19.2154 19.5473,32.1496 2.22402,8.67757 2.7437,17.8996 1.09961,27.3343l-0.0200788 -0.00354331 -24.4784 146.675 -0.0200788 -0.00354331c-1.0878,6.5126 -2.78858,12.9839 -5.08111,19.3784 -2.25,6.27638 -5.06339,12.3378 -8.41654,18.1465l0 0.125197 -148.402 257.039 279.134 696.214 0 0.125197c4.39252,11.0622 6.17717,22.7091 5.36221,34.0772 -0.81378,11.3539 -4.21536,22.6323 -10.1929,32.987l-29.9114 51.8115 0 0.125197c-4.86378,8.42481 -11.0717,15.5528 -18.1854,21.3307 -12.4193,10.0902 -27.3425,15.8362 -42.5327,17.0504 -15.1642,1.21063 -30.7949,-2.09291 -44.6575,-10.0984l0.0318898 -0.0543308c-7.95001,-4.60276 -15.1937,-10.6524 -21.2917,-18.1583l-347.718 -427.23 -80.7922 139.937 67.317 251.232c2.61378,9.75591 3.24922,19.9524 1.93819,30.0378 -1.28386,9.8752 -4.51536,19.5366 -9.6567,28.4421l0 0.125197 -16.1492 27.9685 0.0401575 0.022441c-5.12717,8.94331 -11.7083,16.3949 -19.239,22.304 -12.3201,9.67205 -27.0933,15.1217 -42.1489,16.2036 -15.0047,1.07599 -30.3544,-2.19213 -43.8815,-9.94725 -8.31851,-4.7693 -15.9189,-11.2016 -22.291,-19.3193l-147.144 -187.016 -235.448 -33.9083c-10.0039,-1.42795 -19.2886,-4.7693 -27.6107,-9.57402l-0.125197 0c-13.5921,-7.84725 -24.1571,-19.4929 -30.7311,-33.0036 -6.58819,-13.5354 -9.24922,-29.0622 -7.0252,-44.6351 1.32874,-9.29056 4.46929,-18.6343 9.6378,-27.6024l-0.0944883 -0.0543308 16.1032 -28.0725 0.250394 -0.250394c5.19567,-8.84292 11.961,-16.4799 19.8603,-22.5236 7.96182,-6.09213 17.074,-10.6465 26.9055,-13.2803l251.105 -67.2839 80.8182 -139.974 -543.606 -87.5339c-9.63072,-1.53898 -18.4996,-4.78701 -26.4083,-9.35198 -13.8803,-8.01024 -24.5799,-19.9288 -31.141,-33.724 -6.51969,-13.7114 -8.99883,-29.4355 -6.48662,-45.1536 1.43504,-8.98111 4.51654,-17.9173 9.42639,-26.4225l29.8276 -51.6638 -0.0401575 -0.022441c5.84174,-10.2874 13.9807,-18.913 23.5914,-25.4232 9.70158,-6.57048 20.7414,-10.9358 32.2807,-12.6319l0.125197 0 742.531 -106.501 148.227 -256.91c3.49134,-6.05552 7.33347,-11.5299 11.4449,-16.3854 4.16929,-4.92284 8.95985,-9.62599 14.2736,-14.0469l0.125197 -0.125197z"/>
 </g>
</svg>
